{"accessors" : [{"bufferView" : 0, "byteOffset" : 0, "componentType" : 5123, "count" : 1680, "type" : "SCALAR", "max" : [288], "min" : [0]}, {"bufferView" : 1, "byteOffset" : 0, "componentType" : 5126, "count" : 289, "type" : "VEC3", "max" : [0.012857822701334953, 0.04141853749752045, 0.025419313460588455], "min" : [-0.012860913760960102, -0.06899091601371765, -0.018562372773885727], "name" : "POSITION"}, {"bufferView" : 0, "byteOffset" : 3360, "componentType" : 5123, "count" : 744, "type" : "SCALAR", "max" : [132], "min" : [0]}, {"bufferView" : 2, "byteOffset" : 0, "componentType" : 5126, "count" : 133, "type" : "VEC3", "max" : [0.010520009323954582, 0.04878618195652962, 0.039089132100343704], "min" : [-0.0104777617380023, 0.027059361338615417, 0.011473290622234344], "name" : "POSITION"}], "asset" : {"generator" : "Aspose.3D 25.3.0", "version" : "2.0"}, "buffers" : [{"uri" : "data:application/octet-stream;base64,", "byteLength" : 9924}], "bufferViews" : [{"buffer" : 0, "byteOffset" : 0, "byteLength" : 4848, "target" : 34963}, {"buffer" : 0, "byteOffset" : 4852, "byteLength" : 3468, "byteStride" : 12, "target" : 34962}, {"buffer" : 0, "byteOffset" : 8324, "byteLength" : 1596, "byteStride" : 12, "target" : 34962}], "materials" : [{"name" : "Green", "pbrMetallicRoughness" : {"baseColorFactor" : [0, 0.043137254901960784, 0.00784313725490196, 1], "metallicFactor" : 1, "roughnessFactor" : 1}, "emissiveFactor" : [0, 0, 0], "alphaMode" : "OPAQUE", "doubleSided" : false}], "meshes" : [{"primitives" : [{"attributes" : {"POSITION" : 1}, "indices" : 0, "material" : 0, "mode" : 4}, {"attributes" : {"POSITION" : 3}, "indices" : 2, "material" : 0, "mode" : 4}], "name" : "RedPepper"}], "nodes" : [{"mesh" : 0, "name" : "RedPepper"}], "scene" : 0, "scenes" : [{"nodes" : [0]}]}